<svg width="16" height="16" viewBox="0 0 16 16" fill="none" xmlns="http://www.w3.org/2000/svg">
<path d="M2.1492 13.82L3.0022 4.455C3.0252 4.197 3.2412 4 3.5002 4H5.0002V3C5.0002 2.196 5.3122 1.442 5.8772 0.877C6.4332 0.32 7.2072 0 8.0002 0C9.6542 0 11.0002 1.346 11.0002 3V4H12.5002C12.7592 4 12.9752 4.197 12.9982 4.455L13.8492 13.819C13.9002 14.378 13.7122 14.935 13.3342 15.349C12.9562 15.763 12.4182 16 11.8572 16H4.1422C3.5822 16 3.0442 15.763 2.6662 15.35C2.2872 14.936 2.1002 14.378 2.1492 13.82ZM6.0002 4H10.0002V3C10.0002 1.897 9.1032 1 8.0002 1C7.4702 1 6.9542 1.212 6.5842 1.583C6.2072 1.96 6.0002 2.463 6.0002 3V4Z" fill="#29292D"/>
</svg>
