<svg width="76" height="76" viewBox="0 0 76 76" fill="none" xmlns="http://www.w3.org/2000/svg">
<circle cx="38" cy="38" r="38" fill="#29292D"/>
<g clip-path="url(#clip0_99_1667)">
<path d="M37.6865 37.1949C40.5983 37.1949 43.1197 36.1506 45.1798 34.0901C47.24 32.03 48.2843 29.5093 48.2843 26.5971C48.2843 23.686 47.24 21.165 45.1795 19.1041C43.119 17.0443 40.5979 16 37.6865 16C34.7743 16 32.2536 17.0443 30.1935 19.1045C28.1333 21.1646 27.0886 23.6857 27.0886 26.5971C27.0886 29.5093 28.1333 32.0303 30.1938 34.0904C32.2543 36.1502 34.7753 37.1949 37.6865 37.1949Z" fill="white"/>
<path d="M56.2298 49.834C56.1704 48.9766 56.0502 48.0414 55.8733 47.0538C55.6947 46.0588 55.4648 45.1182 55.1895 44.2585C54.9052 43.3699 54.5185 42.4924 54.0404 41.6515C53.5443 40.7787 52.9615 40.0187 52.3076 39.3933C51.6238 38.739 50.7866 38.213 49.8184 37.8293C48.8536 37.4476 47.7845 37.2542 46.6407 37.2542C46.1916 37.2542 45.7572 37.4385 44.9183 37.9847C44.402 38.3214 43.7981 38.7108 43.124 39.1415C42.5476 39.5087 41.7668 39.8528 40.8024 40.1644C39.8614 40.4688 38.906 40.6232 37.9631 40.6232C37.0201 40.6232 36.0651 40.4688 35.1231 40.1644C34.1597 39.8532 33.3788 39.5091 32.8031 39.1418C32.1354 38.7152 31.5312 38.3258 31.0072 37.9844C30.1693 37.4382 29.7346 37.2539 29.2854 37.2539C28.1414 37.2539 27.0725 37.4476 26.1081 37.8296C25.1406 38.2126 24.303 38.7387 23.6186 39.3936C22.965 40.0193 22.3819 40.779 21.8864 41.6515C21.4087 42.4924 21.022 43.3695 20.7373 44.2588C20.4624 45.1185 20.2324 46.0588 20.0538 47.0538C19.8769 48.04 19.7567 48.9756 19.6973 49.835C19.6389 50.6769 19.6094 51.5507 19.6094 52.4332C19.6094 54.73 20.3395 56.5894 21.7793 57.9607C23.2013 59.3139 25.0829 60.0004 27.3709 60.0004H48.5572C50.8453 60.0004 52.7262 59.3142 54.1485 57.9607C55.5887 56.5904 56.3188 54.7307 56.3188 52.4329C56.3185 51.5463 56.2886 50.6719 56.2298 49.834Z" fill="white"/>
</g>
<defs>
<clipPath id="clip0_99_1667">
<rect width="44" height="44" fill="white" transform="translate(16 16)"/>
</clipPath>
</defs>
</svg>
