<svg width="84" height="20" viewBox="0 0 84 20" fill="none" xmlns="http://www.w3.org/2000/svg">
<path d="M81.6512 9.49208C82.294 9.70675 82.8461 10.1808 83.3076 10.9142C83.769 11.6298 83.9998 12.4527 83.9998 13.3829C83.9998 15.3686 83.4065 16.8533 82.2198 17.8372C81.0332 18.8032 79.3026 19.2862 77.0282 19.2862H66.8428C66.6615 19.2862 66.5049 19.2147 66.3731 19.0716C66.2412 18.9285 66.1753 18.7585 66.1753 18.5617V1.22743C66.1753 1.03065 66.2412 0.860708 66.3731 0.717596C66.5049 0.574485 66.6615 0.50293 66.8428 0.50293H76.781C79.1213 0.50293 80.8436 0.96804 81.9479 1.89826C83.0686 2.81059 83.629 4.19698 83.629 6.05742V6.13792C83.629 6.99659 83.4147 7.73003 82.9862 8.33825C82.5577 8.94647 82.1127 9.33108 81.6512 9.49208ZM76.9293 6.29892C76.9293 5.97692 76.8387 5.69964 76.6574 5.46709C76.4926 5.23453 76.2454 5.11826 75.9157 5.11826H72.603V7.56009H75.9157C76.2454 7.56009 76.4926 7.43486 76.6574 7.18442C76.8387 6.91609 76.9293 6.62092 76.9293 6.29892ZM76.1877 14.6709C76.5667 14.6709 76.8469 14.5367 77.0282 14.2684C77.226 13.9822 77.3249 13.6691 77.3249 13.3292V13.3024C77.3249 12.9625 77.2177 12.6674 77.0035 12.4169C76.8057 12.1665 76.5338 12.0412 76.1877 12.0412H72.603V14.6709H76.1877Z" fill="black"/>
<path d="M63.6202 19.2863C62.2698 19.2863 61.0985 19.2863 59.8732 19.2863C58.7389 19.0287 57.8553 18.2647 57.0194 17.5957C55.4043 16.2898 54.5967 14.2505 54.5967 11.4777V1.22743C54.5967 1.03065 54.6626 0.860708 54.7945 0.717596C54.9263 0.574485 55.0829 0.50293 55.2642 0.50293H60.4311C60.6123 0.50293 60.7689 0.574485 60.9008 0.717596C61.0326 0.860708 61.0985 1.03065 61.0985 1.22743V11.9071C61.0985 12.6405 61.321 13.204 61.766 13.5976C62.2275 13.9911 62.8456 14.1879 63.6202 14.1879C64.3948 14.1879 65.0046 13.9911 65.4496 13.5976C65.9111 13.204 66.1418 12.6405 66.1418 11.9071V1.22743C66.1418 1.03065 66.2077 0.860708 66.3396 0.717596C66.4714 0.574485 66.628 0.50293 66.8093 0.50293H71.9762C72.1575 0.50293 72.314 0.574485 72.4459 0.717596C72.5777 0.860708 72.6437 1.03065 72.6437 1.22743V11.4777C72.6437 14.2505 71.8278 16.2898 70.1962 17.5957C68.581 18.9016 66.389 19.2863 63.6202 19.2863Z" fill="black"/>
<path d="M60.1196 0.50293C60.3009 0.50293 60.4575 0.574485 60.5893 0.717596C60.7211 0.860708 60.7871 1.03065 60.7871 1.22743V18.5617C60.7871 18.7585 60.7211 18.9285 60.5893 19.0716C60.4575 19.2147 60.3009 19.2862 60.1196 19.2862H55.0269C54.8456 19.2862 54.689 19.2147 54.5572 19.0716C54.4253 18.9285 54.3594 18.7585 54.3594 18.5617V12.8462H49.415V18.5617C49.415 18.7585 49.3491 18.9285 49.2172 19.0716C49.0854 19.2147 48.9288 19.2862 48.7475 19.2862H43.6548C43.4735 19.2862 43.3169 19.2236 43.1851 19.0984C43.0532 18.9553 42.9873 18.7764 42.9873 18.5617V1.22743C42.9873 1.03065 43.0532 0.860708 43.1851 0.717596C43.3169 0.574485 43.4735 0.50293 43.6548 0.50293H48.7475C48.9288 0.50293 49.0854 0.574485 49.2172 0.717596C49.3491 0.860708 49.415 1.03065 49.415 1.22743V6.72825H54.3594V1.22743C54.3594 1.03065 54.4253 0.860708 54.5572 0.717596C54.689 0.574485 54.8456 0.50293 55.0269 0.50293H60.1196Z" fill="black"/>
<path d="M43.2631 11.2772C43.2631 14.0094 42.4158 16.0274 40.7211 17.331C39.0431 18.6346 36.8002 19.2864 33.9924 19.2864C31.1846 19.2864 28.9334 18.6346 27.2387 17.331C25.5607 16.0274 24.7217 13.9916 24.7217 11.2236V8.0628C24.7217 6.2413 25.1204 4.73232 25.9179 3.53585C26.732 2.32151 27.8368 1.42862 29.2324 0.857175C30.628 0.285725 32.2147 0 33.9924 0C35.7701 0 37.3485 0.285725 38.7274 0.857175C40.123 1.42862 41.2279 2.31259 42.042 3.50906C42.8561 4.70553 43.2631 6.20559 43.2631 8.00922V11.2772ZM31.4504 11.7862C31.4504 12.5183 31.6747 13.0808 32.1233 13.4737C32.5885 13.8666 33.2115 14.063 33.9924 14.063C34.7733 14.063 35.388 13.8666 35.8366 13.4737C36.3018 13.063 36.5344 12.4915 36.5344 11.7594V7.52706C36.5344 6.79489 36.3018 6.23237 35.8366 5.8395C35.388 5.42877 34.7733 5.22341 33.9924 5.22341C33.2115 5.22341 32.5885 5.41984 32.1233 5.81271C31.6747 6.20559 31.4504 6.76811 31.4504 7.50028V11.7862Z" fill="black"/>
<path d="M35.4346 18.3264C35.5033 18.4362 35.5376 18.555 35.5376 18.683C35.5376 18.8476 35.4775 18.9939 35.3574 19.1219C35.2544 19.2316 35.1256 19.2865 34.9711 19.2865H28.3271C27.9322 19.2865 27.6232 19.1402 27.4 18.8476L22.9191 12.9502V18.5459C22.9191 18.747 22.8505 18.9207 22.7131 19.067C22.5758 19.2133 22.4127 19.2865 22.2238 19.2865H16.9189C16.7301 19.2865 16.567 19.2133 16.4296 19.067C16.2923 18.9207 16.2236 18.747 16.2236 18.5459V0.826325C16.2236 0.625174 16.2923 0.451453 16.4296 0.305162C16.567 0.15887 16.8073 0 16.9962 0H22.4041C22.593 0 22.7904 0 22.9191 0.247135C22.9191 0.466001 22.9191 0.625174 22.9191 0.826325V5.9831L26.988 0.552029C27.2455 0.241159 27.7337 5.11804e-05 28.1114 5.11804e-05H34.147C34.3015 5.11804e-05 34.4303 0.149727 34.5333 0.277732C34.6535 0.387451 34.7136 0.524599 34.7136 0.689177C34.7136 0.835468 34.6706 0.963473 34.5848 1.07319L28.4816 9.00036L35.4346 18.3264Z" fill="black"/>
<path d="M10.3338 7.08401C12.1467 7.29867 13.597 7.64751 14.6848 8.13051C15.7891 8.6135 16.5884 9.24856 17.0828 10.0357C17.5773 10.8228 17.8245 11.8067 17.8245 12.9873C17.8245 14.2753 17.4372 15.4023 16.6626 16.3683C15.9044 17.3164 18.1026 19.2864 16.61 19.2864C15.0124 19.2864 10.6057 19.32 8.87516 19.32C6.94686 19.32 5.31521 19.0606 3.98023 18.5418C2.64524 18.023 1.64813 17.3343 0.988876 16.4757C0.329625 15.5991 0 14.642 0 13.6045C0 13.4256 0.0494438 13.2825 0.148331 13.1752C0.2637 13.0678 0.403791 13.0142 0.568604 13.0142H5.6366C5.9827 13.0142 6.26288 13.1304 6.47714 13.363C6.75732 13.6492 7.07047 13.846 7.41657 13.9533C7.76268 14.0428 8.24888 14.0875 8.87516 14.0875C10.4409 14.0875 11.2237 13.8281 11.2237 13.3093C11.2237 13.0947 11.1166 12.9158 10.9024 12.7727C10.7046 12.6117 10.342 12.4775 9.8146 12.3702C9.30368 12.2449 8.54554 12.1197 7.54018 11.9945C5.28225 11.7083 3.55171 11.1001 2.34858 10.1698C1.14545 9.22173 0.543882 7.88901 0.543882 6.17167C0.543882 4.95523 0.881748 3.8819 1.55748 2.95168C2.23321 2.02146 3.18913 1.29696 4.42522 0.778182C5.6778 0.259405 7.12815 1.68935e-05 8.77628 1.68935e-05C10.4903 1.68935e-05 15.0587 0 16.9963 0C18.5291 0 15.9343 2.07623 16.61 2.93489C17.2858 3.79356 17.2312 4.73162 17.2312 5.55451C17.2312 5.7334 17.1735 5.87651 17.0581 5.98384C16.9592 6.09117 16.8191 6.14484 16.6378 6.14484L16.5719 5.23251C16.2917 5.23251 12.1816 5.23251 11.6529 5.23251C11.0581 5.23251 10.586 5.23251 9.97235 5.23251C9.65699 5.23251 9.2872 5.23251 8.77628 5.23251C7.67203 5.23251 7.11991 5.48295 7.11991 5.98384C7.11991 6.25217 7.33417 6.46684 7.76268 6.62784C8.19119 6.77095 9.04822 6.92301 10.3338 7.08401Z" fill="black"/>
<rect x="61.8047" y="18.4482" width="7.7256" height="0.83854" fill="black"/>
</svg>
