<svg width="119" height="82" viewBox="0 0 119 82" fill="none" xmlns="http://www.w3.org/2000/svg">
<path d="M0 5C0 2.23858 2.23858 0 5 0H119V77C119 79.7614 116.761 82 114 82H0V5Z" fill="#FF7635"/>
<path d="M47.4971 25.4297L42.2061 56H35.3823L31.1831 36.7046L27.8237 56H20.832L26.1021 25.4297H32.9678L37.167 44.7251L40.5054 25.4297H47.4971ZM64.7559 50.3311L63.769 56H50.7515L51.7593 50.3311H64.7559ZM58.52 25.4297L53.208 56H46.2373L51.5073 25.4297H58.52ZM65.2808 37.5654L64.3359 43.0454H53.019L53.9849 37.5654H65.2808ZM69.144 25.4297L68.1572 31.1196H55.0557L56.0635 25.4297H69.144ZM72.9863 52.9136L81.9727 25.4297H85.1851L87.1797 28.1172L77.7524 56H74.0781L72.9863 52.9136ZM77.1016 25.4297L76.7446 53.7534L74.96 56H70.5088L70.2778 25.4297H77.1016ZM84.6812 52.9766L92.9116 25.4297H99.9453L90.1191 56H85.9199L84.6812 52.9766ZM87.8936 25.4297L88.4814 53.6274L86.7598 56H82.9175L82.0356 27.5083L84.3872 25.4297H87.8936Z" fill="white"/>
</svg>
