<svg width="26" height="15" viewBox="0 0 26 15" fill="none" xmlns="http://www.w3.org/2000/svg">
<path d="M12.9174 0.0488281C8.11351 0.0488281 3.75706 2.6621 0.542438 6.90676C0.280125 7.25451 0.280125 7.74035 0.542438 8.0881C3.75706 12.3379 8.11351 14.9511 12.9174 14.9511C17.7214 14.9511 22.0778 12.3379 25.2924 8.09322C25.5548 7.74546 25.5548 7.25963 25.2924 6.91187C22.0778 2.6621 17.7214 0.0488281 12.9174 0.0488281ZM13.262 12.747C10.0731 12.9464 7.43973 10.3332 7.64032 7.15735C7.80491 4.53896 9.93942 2.41663 12.5728 2.25298C15.7617 2.05353 18.3952 4.66681 18.1946 7.84263C18.0248 10.4559 15.8903 12.5782 13.262 12.747ZM13.1026 10.3229C11.3847 10.4303 9.96513 9.02397 10.0783 7.31588C10.1657 5.90441 11.3178 4.76398 12.7374 4.67192C14.4553 4.56453 15.8749 5.97089 15.7617 7.67898C15.6692 9.09557 14.517 10.236 13.1026 10.3229Z" fill="#B3C0D2"/>
</svg>
